<?xml version="1.0" standalone="no"?>
<!DOCTYPE svg PUBLIC "-//W3C//DTD SVG 20010904//EN"
 "http://www.w3.org/TR/2001/REC-SVG-20010904/DTD/svg10.dtd">
<svg version="1.0" xmlns="http://www.w3.org/2000/svg"
 width="800.000000pt" height="800.000000pt" viewBox="0 0 800.000000 800.000000"
 preserveAspectRatio="xMidYMid meet">
<metadata>
Created by potrace 1.14, written by Peter Selinger 2001-2017
</metadata>
<g transform="translate(0.000000,800.000000) scale(0.100000,-0.100000)"
fill="#000000" stroke="none">
<path d="M3430 7830 c-145 -14 -196 -22 -315 -47 -367 -77 -642 -170 -950
-323 -345 -171 -573 -315 -747 -470 -165 -148 -426 -418 -563 -585 -129 -156
-308 -465 -424 -732 -124 -286 -231 -698 -266 -1033 -3 -30 -8 -64 -10 -75
-32 -153 -25 -877 10 -1055 3 -14 7 -43 11 -65 3 -22 7 -47 9 -55 2 -8 7 -35
10 -60 19 -135 204 -691 298 -895 105 -227 338 -604 470 -760 63 -75 238 -248
336 -335 86 -75 106 -94 221 -204 145 -137 377 -338 468 -404 120 -86 316
-180 512 -245 91 -30 224 -83 295 -117 268 -127 413 -168 658 -185 48 -4 97
-8 107 -10 117 -23 585 -22 775 1 407 48 659 104 1007 222 330 113 429 156
658 290 259 151 597 406 875 660 28 26 87 78 131 116 186 163 437 437 521 569
74 117 170 319 222 472 32 92 77 277 86 350 3 28 10 84 15 126 14 116 10 431
-7 529 -22 123 -153 511 -216 637 -25 49 -82 218 -136 398 -28 96 -34 128 -46
280 -4 39 -8 84 -10 100 -2 17 -7 75 -10 130 -7 109 -38 325 -61 420 -19 79
-117 377 -161 490 -138 356 -336 655 -589 891 -166 155 -383 323 -546 422
-111 68 -352 190 -465 236 -157 65 -525 180 -713 224 -108 26 -378 66 -523 78
-40 3 -85 8 -102 10 -52 8 -756 11 -835 4z"/>
</g>
</svg>
