<?xml version="1.0" standalone="no"?>
<!DOCTYPE svg PUBLIC "-//W3C//DTD SVG 20010904//EN"
 "http://www.w3.org/TR/2001/REC-SVG-20010904/DTD/svg10.dtd">
<svg version="1.0" xmlns="http://www.w3.org/2000/svg"
 width="1250.000000pt" height="1250.000000pt" viewBox="0 0 1250.000000 1250.000000"
 preserveAspectRatio="xMidYMid meet">
<metadata>
Created by potrace 1.14, written by Peter Selinger 2001-2017
</metadata>
<g transform="translate(0.000000,1250.000000) scale(0.100000,-0.100000)"
fill="#000000" stroke="none">
<path d="M977 12416 c-4 -9 -22 -13 -66 -11 -33 1 -58 -2 -55 -7 3 -4 10 -6
15 -3 5 4 8 -12 7 -34 -1 -22 -5 -38 -9 -35 -4 2 -11 0 -14 -6 -4 -6 -1 -9 7
-8 10 2 13 -22 13 -112 0 -90 -3 -114 -13 -112 -8 1 -11 -2 -7 -8 3 -6 11 -8
16 -5 5 4 8 -12 7 -34 -1 -22 -5 -38 -9 -35 -4 2 -11 0 -14 -6 -4 -6 -1 -9 7
-8 10 2 13 -15 13 -72 0 -57 -3 -74 -13 -72 -8 1 -11 -2 -7 -8 3 -6 11 -8 16
-5 5 4 8 -12 7 -34 -1 -22 -5 -38 -9 -35 -4 2 -11 0 -14 -6 -4 -6 -1 -9 7 -8
9 2 13 -8 13 -32 0 -24 -4 -34 -13 -32 -8 1 -11 -2 -7 -8 3 -6 11 -8 16 -5 5
4 8 -12 7 -34 -1 -22 -5 -38 -9 -35 -4 2 -11 0 -14 -6 -4 -6 -1 -9 7 -8 9 2
13 -13 15 -55 0 -31 -3 -55 -7 -52 -5 3 -12 1 -15 -5 -4 -6 -1 -9 7 -8 9 2 13
-9 15 -34 0 -21 -3 -36 -7 -33 -5 3 -12 1 -15 -5 -4 -6 -1 -9 7 -8 9 2 13 -12
13 -52 0 -40 -4 -54 -13 -52 -8 1 -11 -2 -7 -8 3 -6 11 -8 16 -5 5 4 8 -12 7
-34 -1 -22 -5 -38 -9 -35 -4 2 -11 0 -14 -6 -4 -6 -1 -9 7 -8 10 2 13 -20 15
-95 1 -53 -2 -95 -7 -92 -5 3 -12 1 -15 -5 -4 -6 -1 -9 7 -8 9 2 13 -9 15 -34
0 -21 -3 -36 -7 -33 -5 3 -12 1 -15 -5 -4 -6 -1 -9 7 -8 7 2 13 -4 13 -12 0
-8 -6 -14 -13 -12 -8 1 -11 -2 -7 -8 3 -6 11 -8 16 -5 5 4 8 -12 7 -34 -1 -22
-5 -38 -9 -35 -4 2 -11 0 -14 -6 -4 -6 -1 -9 7 -8 9 2 13 -8 13 -32 0 -24 -4
-34 -13 -32 -8 1 -11 -2 -7 -8 3 -6 11 -8 16 -5 5 4 8 -12 7 -34 -1 -22 -5
-38 -9 -35 -4 2 -11 0 -14 -6 -4 -6 -1 -9 7 -8 10 2 13 -15 13 -72 0 -57 -3
-74 -13 -72 -8 1 -11 -2 -7 -8 3 -6 11 -8 16 -5 5 4 8 -12 7 -34 -1 -22 -5
-38 -9 -35 -4 2 -11 0 -14 -6 -4 -6 -1 -9 7 -8 10 2 13 -22 13 -112 0 -90 -3
-114 -13 -112 -8 1 -11 -2 -7 -8 3 -6 11 -8 16 -5 5 4 8 -12 7 -34 -1 -22 -5
-38 -9 -35 -4 2 -11 0 -14 -6 -4 -6 -1 -9 7 -8 10 2 13 -20 15 -95 1 -53 -2
-95 -7 -92 -5 3 -12 1 -15 -5 -4 -6 -1 -9 7 -8 9 2 13 -9 15 -34 0 -21 -3 -36
-7 -33 -5 3 -12 1 -15 -5 -4 -6 -1 -9 7 -8 9 2 13 -12 13 -52 0 -40 -4 -54
-13 -52 -8 1 -11 -2 -7 -8 3 -6 11 -8 16 -5 5 4 8 -12 7 -34 -1 -22 -5 -38 -9
-35 -4 2 -11 0 -14 -6 -4 -6 -1 -9 7 -8 10 2 13 -20 15 -95 1 -53 -2 -95 -7
-92 -5 3 -12 1 -15 -5 -4 -6 -1 -9 7 -8 9 2 13 -9 15 -34 0 -21 -3 -36 -7 -33
-5 3 -12 1 -15 -5 -4 -6 -1 -9 7 -8 9 2 13 -9 15 -34 0 -21 -3 -36 -7 -33 -5
3 -12 1 -15 -5 -4 -6 -1 -9 7 -8 9 2 13 -9 15 -34 0 -21 -3 -36 -7 -33 -5 3
-12 1 -15 -5 -4 -6 -1 -9 7 -8 9 2 13 -12 13 -52 0 -40 -4 -54 -13 -52 -8 1
-11 -2 -7 -8 3 -6 11 -8 16 -5 5 4 8 -12 7 -34 -1 -22 -5 -38 -9 -35 -4 2 -11
0 -14 -6 -4 -6 -1 -9 7 -8 10 2 13 -20 15 -95 1 -53 -2 -95 -7 -92 -5 3 -12 1
-15 -5 -4 -6 -1 -9 7 -8 9 2 13 -9 15 -34 0 -21 -3 -36 -7 -33 -5 3 -12 1 -15
-5 -4 -6 -1 -9 7 -8 9 2 13 -12 13 -52 0 -40 -4 -54 -13 -52 -8 1 -11 -2 -7
-8 3 -6 11 -8 16 -5 5 4 8 -12 7 -34 -1 -22 -5 -38 -9 -35 -4 2 -11 0 -14 -6
-4 -6 -1 -9 7 -8 10 2 13 -22 13 -112 0 -90 -3 -114 -13 -112 -8 1 -11 -2 -7
-8 3 -6 11 -8 16 -5 5 4 8 -12 7 -34 -1 -22 -5 -38 -9 -35 -4 2 -11 0 -14 -6
-4 -6 -1 -9 7 -8 10 2 13 -15 13 -72 0 -57 -3 -74 -13 -72 -8 1 -11 -2 -7 -8
3 -6 11 -8 16 -5 5 4 8 -12 7 -34 -1 -22 -5 -38 -9 -35 -4 2 -11 0 -14 -6 -4
-6 -1 -9 7 -8 9 2 13 -8 13 -32 0 -24 -4 -34 -13 -32 -8 1 -11 -2 -7 -8 3 -6
11 -8 16 -5 5 4 8 -12 7 -34 -1 -22 -5 -38 -9 -35 -4 2 -11 0 -14 -6 -4 -6 -1
-9 7 -8 9 2 13 -13 15 -55 0 -31 -3 -55 -7 -52 -5 3 -12 1 -15 -5 -4 -6 -1 -9
7 -8 9 2 13 -9 15 -34 0 -21 -3 -36 -7 -33 -5 3 -12 1 -15 -5 -4 -6 -1 -9 7
-8 9 2 13 -12 13 -52 0 -40 -4 -54 -13 -52 -8 1 -11 -2 -7 -8 3 -6 11 -8 16
-5 5 4 8 -12 7 -34 -1 -22 -5 -38 -9 -35 -4 2 -11 0 -14 -6 -4 -6 -1 -9 7 -8
10 2 13 -20 15 -95 1 -53 -2 -95 -7 -92 -5 3 -12 1 -15 -5 -4 -6 -1 -9 7 -8 9
2 13 -9 15 -34 0 -21 -3 -36 -7 -33 -5 3 -12 1 -15 -5 -4 -6 -1 -9 7 -8 7 2
13 -4 13 -12 0 -8 -6 -14 -13 -12 -8 1 -11 -2 -7 -8 3 -6 11 -8 16 -5 5 4 8
-12 7 -34 -1 -22 -5 -38 -9 -35 -4 2 -11 0 -14 -6 -4 -6 -1 -9 7 -8 9 2 13 -8
13 -32 0 -24 -4 -34 -13 -32 -8 1 -11 -2 -7 -8 3 -6 11 -8 16 -5 5 4 8 -12 7
-34 -1 -22 -5 -38 -9 -35 -4 2 -11 0 -14 -6 -4 -6 -1 -9 7 -8 10 2 13 -15 13
-72 0 -57 -3 -74 -13 -72 -8 1 -11 -2 -7 -8 3 -6 11 -8 16 -5 5 4 8 -12 7 -34
-1 -22 -5 -38 -9 -35 -4 2 -11 0 -14 -6 -4 -6 -1 -9 7 -8 10 2 13 -22 13 -112
0 -90 -3 -114 -13 -112 -8 1 -11 -2 -7 -8 3 -6 11 -8 16 -5 5 4 8 -12 7 -34
-1 -22 -5 -38 -9 -35 -4 2 -11 0 -14 -6 -4 -6 -1 -9 7 -8 10 2 13 -20 15 -95
1 -53 -2 -95 -7 -92 -5 3 -12 1 -15 -5 -4 -6 -1 -9 7 -8 9 2 13 -9 15 -34 0
-21 -3 -36 -7 -33 -5 3 -12 1 -15 -5 -4 -6 -1 -9 7 -8 9 2 13 -12 13 -52 0
-40 -4 -54 -13 -52 -8 1 -11 -2 -7 -8 3 -6 11 -8 16 -5 5 4 8 -12 7 -34 -1
-22 -5 -38 -9 -35 -4 2 -11 0 -14 -6 -4 -6 -1 -9 7 -8 10 2 13 -20 15 -95 1
-53 -2 -95 -7 -92 -5 3 -12 1 -15 -5 -4 -6 -1 -9 7 -8 9 2 13 -9 15 -34 0 -21
-3 -36 -7 -33 -5 3 -12 1 -15 -5 -4 -6 -1 -9 7 -8 9 2 13 -9 15 -34 0 -21 -3
-36 -7 -33 -5 3 -12 1 -15 -5 -4 -6 -1 -9 7 -8 9 2 13 -9 15 -34 0 -21 -3 -36
-7 -33 -5 3 -12 1 -15 -5 -4 -6 -1 -9 7 -8 9 2 13 -12 13 -52 0 -40 -4 -54
-13 -52 -8 1 -11 -2 -7 -8 3 -6 11 -8 16 -5 5 4 8 -12 7 -34 -1 -22 -5 -38 -9
-35 -4 2 -11 0 -14 -6 -4 -6 -1 -9 7 -8 10 2 13 -20 15 -95 1 -53 -2 -95 -7
-92 -5 3 -12 1 -15 -5 -4 -6 -1 -9 7 -8 9 2 13 -9 15 -34 0 -21 -3 -36 -7 -33
-5 3 -12 1 -15 -5 -4 -6 -1 -9 7 -8 9 2 13 -12 13 -52 0 -40 -4 -54 -13 -52
-8 1 -11 -2 -7 -8 3 -6 11 -8 16 -5 5 4 8 -12 7 -34 -1 -22 -5 -38 -9 -35 -4
2 -11 0 -14 -6 -4 -6 -1 -9 7 -8 10 2 13 -22 13 -112 0 -90 -3 -114 -13 -112
-8 1 -11 -2 -7 -8 3 -6 11 -8 16 -5 5 4 8 -12 7 -34 -1 -22 -5 -38 -9 -35 -4
2 -11 0 -14 -6 -4 -6 -1 -9 7 -8 10 2 13 -15 13 -72 0 -57 -3 -74 -13 -72 -8
1 -11 -2 -7 -8 3 -6 11 -8 16 -5 5 4 8 -12 7 -34 -1 -22 -5 -38 -9 -35 -4 2
-11 0 -14 -6 -4 -6 -1 -9 7 -8 9 2 13 -8 13 -32 0 -24 -4 -34 -13 -32 -8 1
-11 -2 -7 -8 3 -6 11 -8 16 -5 5 4 8 -12 7 -34 -1 -22 -5 -38 -9 -35 -4 2 -11
0 -14 -6 -4 -6 -1 -9 7 -8 9 2 13 -13 15 -55 0 -31 -3 -55 -7 -52 -5 3 -12 1
-15 -5 -4 -6 -1 -9 7 -8 9 2 13 -9 15 -34 0 -21 -3 -36 -7 -33 -5 3 -12 1 -15
-5 -4 -6 -1 -9 7 -8 9 2 13 -12 13 -52 0 -40 -4 -54 -13 -52 -8 1 -11 -2 -7
-8 3 -6 11 -8 16 -5 5 4 8 -12 7 -34 -1 -22 -5 -38 -9 -35 -4 2 -11 0 -14 -6
-4 -6 -1 -9 7 -8 10 2 13 -20 15 -95 1 -53 -2 -95 -7 -92 -5 3 -12 1 -15 -5
-4 -6 -1 -9 7 -8 9 2 13 -9 15 -34 0 -21 -3 -36 -7 -33 -5 3 -12 1 -15 -5 -4
-6 -1 -9 7 -8 7 2 13 -4 13 -12 0 -8 -6 -14 -13 -12 -8 1 -11 -2 -7 -8 3 -6
11 -8 16 -5 5 4 8 -12 7 -34 -1 -22 -5 -38 -9 -35 -4 2 -11 0 -14 -6 -4 -6 -1
-9 7 -8 9 2 13 -8 13 -32 0 -24 -4 -34 -13 -32 -8 1 -11 -2 -7 -8 3 -6 11 -8
16 -5 5 4 8 -12 7 -34 -1 -22 -5 -38 -9 -35 -4 2 -11 0 -14 -6 -4 -6 -1 -9 7
-8 10 2 13 -15 13 -72 0 -57 -3 -74 -13 -72 -8 1 -11 -2 -7 -8 3 -6 11 -8 16
-5 5 4 8 -12 7 -34 -1 -22 -5 -38 -9 -35 -4 2 -11 0 -14 -6 -4 -6 -1 -9 7 -8
10 2 13 -22 13 -112 0 -90 -3 -114 -13 -112 -8 1 -11 -2 -7 -8 3 -6 11 -8 16
-5 14 9 11 -39 -4 -54 -9 -11 -9 -13 1 -7 6 4 12 3 12 -3 0 -10 76 -83 163
-157 16 -14 25 -29 21 -35 -5 -8 -3 -9 5 -5 14 9 53 -22 45 -36 -3 -4 -2 -8 3
-7 19 3 33 -2 33 -12 0 -5 -6 -7 -13 -3 -8 5 -8 2 2 -9 7 -9 19 -17 25 -17 6
0 4 5 -4 10 -8 5 -10 10 -4 10 6 0 24 -15 41 -32 16 -18 46 -46 66 -62 20 -15
34 -32 31 -37 -3 -5 -1 -8 4 -7 11 3 88 -60 169 -138 29 -29 53 -50 53 -47 0
2 18 -14 40 -36 22 -22 40 -38 40 -35 0 3 7 -1 15 -10 18 -17 20 -30 3 -20 -7
4 -8 3 -4 -5 4 -6 11 -9 16 -6 10 6 43 -19 109 -82 24 -24 48 -43 53 -43 5 0
6 -4 3 -10 -3 -5 -1 -10 5 -10 6 0 29 -17 52 -37 64 -60 94 -87 117 -106 12
-10 19 -23 15 -29 -5 -7 -3 -8 5 -3 18 11 75 -50 67 -72 -5 -16 -4 -17 6 -1
11 14 16 12 49 -20 21 -19 35 -40 32 -45 -3 -6 -1 -7 4 -4 13 8 57 -29 49 -42
-4 -5 -1 -13 5 -17 8 -4 9 -3 5 4 -12 19 8 14 32 -9 12 -11 19 -25 16 -31 -4
-6 -3 -8 3 -5 6 4 23 -5 39 -19 16 -14 39 -32 52 -41 12 -8 22 -22 22 -31 0
-8 3 -13 6 -9 6 6 34 -16 100 -79 24 -23 50 -44 59 -48 8 -3 15 -13 15 -21 0
-9 4 -14 9 -11 4 3 17 -4 27 -16 11 -12 13 -18 5 -13 -10 5 -12 4 -7 -4 4 -6
11 -9 15 -6 9 5 11 3 124 -99 42 -38 73 -74 70 -79 -3 -6 -1 -7 5 -3 6 3 29
-11 51 -31 22 -21 61 -56 87 -78 26 -22 59 -51 73 -65 15 -14 50 -45 79 -68
28 -24 49 -49 45 -54 -3 -6 -2 -8 4 -5 11 7 139 -110 135 -124 -1 -6 2 -7 8
-4 14 8 52 -24 44 -37 -3 -4 -1 -7 4 -6 7 3 88 -60 127 -99 9 -9 15 -9 24 0 8
8 11 8 11 -2 0 -9 6 -11 18 -6 24 10 62 12 94 3 15 -3 30 -2 33 3 4 5 13 5 23
0 11 -6 24 -6 35 0 9 6 17 6 17 2 0 -5 9 -9 20 -9 11 0 20 3 20 7 0 3 15 4 33
2 36 -6 58 -6 105 -1 17 2 38 1 44 -3 7 -4 18 -3 25 3 8 6 13 6 13 1 0 -11 29
-11 48 1 6 4 12 3 12 -2 0 -5 12 -7 26 -4 21 4 25 2 19 -9 -5 -8 1 -5 13 5 12
11 22 14 22 8 0 -8 7 -9 25 -2 16 6 25 6 25 -1 0 -6 7 -6 18 -2 19 10 69 9 79
0 3 -4 12 -2 20 4 7 6 13 8 13 3 0 -10 51 -11 67 -1 6 4 13 1 16 -5 3 -10 7
-10 17 -1 8 8 20 9 36 3 17 -7 24 -6 24 2 0 9 3 9 11 1 7 -7 21 -8 40 -3 16 5
31 5 34 0 3 -5 16 -6 28 -1 12 5 31 5 42 1 11 -4 24 -5 29 -2 14 8 58 8 88 0
15 -3 30 -2 33 3 4 5 14 5 25 -1 10 -6 21 -7 23 -3 8 12 72 7 72 -5 0 -6 4
-14 9 -19 5 -4 6 -3 2 4 -3 6 1 16 10 21 21 12 66 3 57 -12 -3 -6 3 -2 15 8
12 11 22 14 22 8 0 -8 7 -9 23 -3 13 5 30 5 37 1 9 -5 20 -4 27 2 9 7 13 7 13
0 0 -7 10 -8 30 -2 16 5 30 5 30 1 0 -5 12 -6 26 -3 21 4 25 2 19 -9 -5 -8 1
-5 13 5 12 11 22 14 22 8 0 -8 7 -9 23 -3 14 5 30 5 40 0 12 -7 17 -6 17 2 0
8 4 8 13 1 8 -7 18 -7 27 -2 9 5 19 5 26 -1 8 -7 15 -6 19 2 5 7 10 8 14 1 4
-7 20 -8 44 -2 20 4 39 4 42 -1 3 -4 16 -5 28 0 12 5 31 5 42 1 11 -4 24 -5
29 -2 14 8 58 8 88 0 15 -3 30 -2 33 3 4 5 14 5 26 -1 11 -6 27 -7 37 -3 19
10 69 9 79 0 3 -4 12 -2 20 4 7 6 13 7 13 2 0 -11 29 -11 48 1 6 4 12 3 12 -2
0 -5 12 -7 26 -4 21 4 25 2 19 -9 -5 -8 1 -5 13 5 12 11 22 14 22 8 0 -8 7 -9
25 -2 16 6 25 6 25 -1 0 -6 7 -6 18 -2 19 10 69 9 79 0 3 -4 12 -2 20 4 7 6
13 8 13 3 0 -10 51 -11 67 -1 6 4 13 1 16 -5 3 -10 7 -10 17 -1 8 8 20 9 36 3
17 -7 24 -6 24 2 0 9 3 9 11 1 7 -7 21 -8 40 -3 16 5 31 5 34 0 3 -5 16 -6 28
-1 12 5 31 5 42 1 11 -4 24 -5 29 -2 14 8 58 8 88 0 15 -3 30 -2 33 3 4 5 14
5 25 -1 10 -6 21 -7 23 -3 8 12 72 7 72 -5 0 -6 4 -14 9 -19 5 -4 6 -3 2 4 -3
6 1 16 10 21 21 12 66 3 57 -12 -3 -6 3 -2 15 8 12 11 22 14 22 8 0 -8 7 -9
23 -3 13 5 30 5 37 1 9 -5 20 -4 27 2 9 7 13 7 13 0 0 -7 10 -8 30 -2 17 5 30
5 30 1 0 -5 12 -6 26 -3 21 4 25 2 19 -9 -5 -8 1 -5 13 5 12 11 22 14 22 8 0
-8 7 -9 23 -3 14 5 30 5 40 0 12 -7 17 -6 17 2 0 8 4 8 13 1 8 -7 18 -7 27 -2
9 5 19 5 26 -1 8 -7 15 -6 19 2 5 7 10 8 14 1 4 -7 20 -8 44 -2 20 4 39 4 42
-1 3 -4 16 -5 28 0 12 5 31 5 42 1 11 -4 24 -5 29 -2 14 8 58 8 88 0 15 -3 30
-2 33 3 4 5 14 5 25 -1 10 -6 21 -7 23 -3 8 12 72 7 72 -5 0 -6 4 -14 9 -19 5
-4 6 -3 2 4 -3 6 1 16 10 21 21 12 66 3 57 -12 -4 -6 1 -5 10 2 19 16 71 22
89 11 7 -4 18 -3 25 3 9 7 13 7 13 0 0 -7 10 -8 30 -2 17 5 30 5 30 1 0 -5 12
-6 26 -3 21 4 25 2 19 -9 -5 -8 1 -5 13 5 12 11 22 14 22 8 0 -8 7 -9 23 -3
14 5 30 5 40 0 12 -7 17 -6 17 3 0 9 3 9 12 0 7 -7 17 -8 29 -2 12 7 20 6 24
0 5 -8 11 -7 21 1 11 9 14 9 14 -1 0 -8 6 -10 18 -5 28 12 87 10 87 -2 0 -6 4
-15 9 -20 5 -4 6 -3 2 4 -3 6 1 16 10 21 21 12 66 3 57 -12 -4 -6 1 -5 10 2
19 16 71 22 89 11 7 -4 18 -3 25 3 9 7 13 7 13 0 0 -7 10 -8 30 -2 16 5 30 5
30 1 0 -5 12 -6 26 -3 21 4 25 2 19 -9 -5 -8 1 -5 13 5 12 11 22 14 22 8 0 -8
7 -9 23 -3 14 5 30 5 40 0 12 -7 17 -6 17 3 0 9 3 9 12 0 7 -7 17 -8 29 -2 12
7 20 6 24 0 5 -8 11 -7 21 1 11 9 14 9 14 -1 0 -8 6 -10 18 -5 28 12 87 10 87
-2 0 -6 4 -15 9 -20 5 -4 6 -3 2 4 -3 6 1 16 10 21 21 12 66 3 57 -12 -4 -6 1
-5 10 2 19 16 71 22 89 11 7 -4 18 -3 25 3 9 7 13 7 13 0 0 -7 10 -8 30 -2 16
5 30 5 30 1 0 -5 12 -6 26 -3 21 4 25 2 19 -9 -5 -8 1 -5 13 5 12 11 22 14 22
8 0 -8 7 -9 23 -3 14 5 30 5 40 0 12 -7 17 -6 17 3 0 9 3 9 12 0 7 -7 17 -8
29 -2 12 7 20 6 24 0 5 -8 11 -7 21 1 8 6 14 7 14 2 0 -6 13 -10 30 -9 16 1
30 5 30 10 0 5 6 4 13 -2 8 -7 18 -7 27 -2 9 5 19 5 26 -1 8 -7 15 -6 19 2 5
8 9 8 14 0 5 -7 17 -8 39 -2 20 6 32 6 32 0 0 -6 9 -5 21 2 17 9 20 8 13 -3
-6 -10 -5 -11 7 -2 8 7 41 17 74 23 33 7 71 16 85 22 14 5 37 10 53 11 15 1
27 6 27 11 0 4 8 7 18 5 11 -2 26 3 35 11 11 9 17 10 17 2 0 -6 5 -11 11 -11
5 0 8 4 4 9 -7 12 31 25 46 15 8 -4 9 -3 5 4 -10 16 7 15 23 0 10 -11 11 -10
6 2 -4 11 7 20 41 33 25 9 51 14 57 10 6 -4 7 -1 2 7 -6 10 -3 12 13 8 12 -4
20 -3 17 1 -6 10 44 33 56 26 5 -4 9 -1 9 5 0 7 7 9 16 6 8 -3 13 -2 10 3 -5
8 45 35 59 32 3 -1 13 5 22 14 8 9 22 14 30 11 8 -3 12 -2 9 2 -3 5 8 16 25
26 16 9 29 14 29 10 0 -4 6 0 13 11 9 11 19 15 27 10 8 -5 11 -4 7 2 -3 5 16
23 43 39 27 16 50 33 50 38 0 4 7 6 15 2 8 -3 14 -2 12 2 -1 4 2 8 6 9 5 1 14
9 21 19 7 9 18 14 24 10 8 -5 10 -2 6 8 -3 9 -1 16 5 16 7 0 23 12 36 28 21
23 26 25 35 12 10 -13 10 -13 8 1 -4 18 92 120 106 112 5 -3 6 -1 2 5 -3 6 2
17 11 24 10 7 38 38 63 68 25 30 49 60 55 66 5 6 16 21 24 32 12 17 18 19 30
9 14 -11 14 -10 1 7 -13 16 -12 20 5 32 10 8 16 14 12 14 -4 0 0 11 9 25 9 14
21 22 27 18 5 -3 7 -1 3 5 -8 13 30 79 64 111 14 13 19 20 13 17 -18 -10 -16
10 3 28 8 9 13 16 11 16 -3 0 9 30 27 68 18 37 39 84 46 104 8 20 17 35 22 32
4 -3 5 2 2 10 -3 9 -1 16 5 16 6 0 8 7 4 17 -4 9 -2 14 3 11 5 -3 10 7 10 24
1 17 7 34 13 38 7 4 12 10 11 14 -4 15 12 86 20 86 4 0 11 7 14 16 3 8 2 13
-3 10 -5 -3 -4 12 1 34 6 22 13 38 17 36 3 -2 7 10 8 27 3 49 14 111 22 117 3
3 7 14 7 25 5 61 17 122 27 134 7 9 8 12 1 8 -7 -4 -11 6 -12 28 -1 22 3 35
11 35 9 0 9 2 1 8 -15 9 -15 63 0 81 7 10 7 13 0 8 -7 -4 -11 6 -12 28 -1 22
3 35 11 35 7 0 8 3 2 8 -15 11 -17 32 -2 32 8 0 8 3 -2 9 -13 8 -13 12 0 27 8
10 9 15 2 11 -8 -5 -11 0 -10 13 1 11 6 20 12 20 5 0 4 4 -4 9 -13 8 -13 12 0
27 8 10 9 15 2 11 -8 -5 -11 2 -11 23 1 24 5 30 17 25 14 -4 14 -4 1 7 -19 16
-25 62 -7 51 9 -5 9 -3 1 8 -15 19 -15 112 0 121 8 6 8 8 -1 8 -7 0 -13 9 -13
20 0 11 5 20 10 20 6 0 10 5 10 11 0 5 -4 8 -10 4 -5 -3 -8 7 -7 25 1 16 7 30
12 30 6 0 4 4 -4 9 -13 8 -13 12 0 27 8 10 9 15 2 11 -8 -5 -11 0 -10 13 1 11
6 20 12 20 5 0 4 4 -4 9 -13 8 -13 12 0 27 8 10 9 15 2 11 -8 -5 -11 2 -11 23
1 24 5 30 17 25 14 -4 14 -4 1 7 -19 16 -25 62 -7 51 9 -5 9 -3 1 8 -15 19
-15 112 0 121 8 6 8 8 -1 8 -7 0 -13 9 -13 20 0 11 5 20 10 20 6 0 10 5 10 11
0 5 -4 8 -10 4 -5 -3 -8 7 -7 25 1 16 7 30 12 30 6 0 4 4 -4 9 -13 8 -13 12 0
27 8 10 9 15 2 11 -8 -5 -11 0 -10 13 1 11 6 20 12 20 5 0 4 4 -4 9 -13 8 -13
12 0 27 8 10 9 15 2 11 -8 -5 -11 2 -11 23 1 24 5 30 17 25 14 -4 14 -4 1 7
-19 16 -25 62 -7 51 9 -5 9 -3 1 8 -15 19 -15 112 0 121 8 6 8 8 -1 8 -7 0
-13 9 -13 20 0 11 5 20 10 20 6 0 10 5 10 11 0 5 -4 8 -10 4 -5 -3 -8 7 -7 25
1 16 7 30 12 30 6 0 4 4 -4 9 -13 8 -13 12 0 27 8 10 9 15 2 11 -8 -5 -11 0
-10 13 1 11 6 20 12 20 5 0 4 4 -4 9 -13 8 -13 12 0 27 8 10 9 15 2 11 -8 -5
-11 2 -11 23 1 24 5 30 17 25 14 -4 14 -4 1 7 -19 16 -25 62 -7 51 9 -5 9 -3
1 8 -15 19 -15 112 0 121 8 6 8 8 -1 8 -7 0 -13 9 -13 20 0 11 5 20 10 20 6 0
10 5 10 11 0 5 -4 8 -10 4 -5 -3 -8 7 -7 25 1 16 7 30 12 30 6 0 4 4 -4 9 -13
8 -13 12 0 27 8 10 9 15 2 11 -8 -5 -11 0 -10 13 1 11 6 20 12 20 5 0 4 4 -4
9 -13 8 -13 12 0 27 8 10 9 15 2 11 -8 -5 -11 2 -11 23 1 24 5 30 17 25 14 -4
14 -4 1 7 -19 16 -25 62 -7 51 9 -5 9 -3 1 8 -15 19 -15 112 0 121 8 6 8 8 -1
8 -7 0 -13 9 -13 20 0 11 5 20 10 20 6 0 10 5 10 11 0 5 -4 8 -10 4 -5 -3 -8
7 -7 25 1 16 7 30 12 30 6 0 4 4 -4 9 -13 8 -13 12 0 27 8 10 9 15 2 11 -8 -5
-11 0 -10 13 1 11 6 20 12 20 5 0 4 4 -4 9 -13 8 -13 12 0 27 8 10 9 15 2 11
-8 -5 -11 0 -10 13 1 11 6 20 12 20 5 0 4 4 -4 9 -13 8 -13 12 0 27 8 10 9 15
2 11 -8 -5 -11 0 -10 13 1 11 6 20 12 20 5 0 4 4 -4 9 -13 8 -13 12 0 27 8 10
9 15 2 11 -8 -5 -11 2 -11 23 1 24 5 30 17 25 14 -4 14 -4 1 7 -19 16 -25 62
-7 51 9 -5 9 -3 1 8 -15 19 -15 112 0 121 8 6 8 8 -1 8 -7 0 -13 9 -13 20 0
11 5 20 10 20 6 0 10 5 10 11 0 5 -4 8 -10 4 -5 -3 -8 7 -7 25 1 16 7 30 12
30 6 0 4 4 -4 9 -13 8 -13 12 0 27 8 10 9 15 2 11 -8 -5 -11 0 -10 13 1 11 6
20 12 20 5 0 4 4 -4 9 -13 8 -13 12 0 27 8 10 9 15 2 11 -8 -5 -11 2 -11 23 1
24 5 30 17 25 14 -4 14 -4 1 7 -19 16 -25 62 -7 51 9 -5 9 -3 1 8 -15 19 -15
112 0 121 8 6 8 8 -1 8 -7 0 -13 9 -13 20 0 11 5 20 10 20 6 0 10 5 10 11 0 5
-4 8 -10 4 -5 -3 -8 7 -7 25 1 16 7 30 12 30 6 0 4 4 -4 9 -13 8 -13 12 0 27
8 10 9 15 2 11 -8 -5 -11 0 -10 13 1 11 6 20 12 20 5 0 4 4 -4 9 -13 8 -13 12
0 27 8 10 9 15 2 11 -8 -5 -11 2 -11 23 1 24 5 30 17 25 14 -4 14 -4 1 7 -19
16 -25 62 -7 51 9 -5 9 -3 1 8 -15 19 -15 112 0 121 8 6 8 8 -1 8 -7 0 -13 9
-13 20 0 11 5 20 10 20 6 0 10 5 10 11 0 5 -4 8 -10 4 -5 -3 -8 7 -7 25 1 16
7 30 12 30 6 0 4 4 -4 9 -13 8 -13 12 0 27 8 10 9 15 2 11 -8 -5 -11 0 -10 13
1 11 6 20 12 20 5 0 4 4 -4 9 -13 8 -13 12 0 27 8 10 9 15 2 11 -8 -5 -11 2
-11 23 1 24 5 30 17 25 14 -4 14 -4 1 7 -19 16 -25 62 -7 51 9 -5 9 -3 1 8
-15 19 -15 112 0 121 8 6 8 8 -1 8 -7 0 -13 9 -13 20 0 11 5 20 10 20 6 0 10
5 10 11 0 5 -4 8 -10 4 -5 -3 -8 7 -7 25 1 16 7 30 12 30 6 0 4 4 -4 9 -13 8
-13 12 0 27 8 10 9 15 2 11 -8 -5 -11 0 -10 13 1 11 6 20 12 20 5 0 4 4 -4 9
-13 8 -13 12 0 27 8 10 9 15 2 11 -8 -5 -11 2 -11 23 1 24 5 30 17 25 14 -4
14 -4 1 7 -19 16 -25 62 -7 51 9 -5 9 -3 1 8 -13 17 -16 169 -3 169 5 0 9 5 9
11 0 5 -4 8 -10 4 -5 -3 -8 7 -7 25 1 16 7 30 12 30 6 0 4 4 -4 9 -13 8 -13
12 0 27 8 10 9 15 2 11 -8 -5 -11 0 -10 13 1 11 6 20 12 20 5 0 4 4 -4 9 -13
8 -13 12 0 27 8 10 9 15 2 11 -8 -5 -11 0 -10 13 1 11 6 20 12 20 5 0 4 4 -4
9 -13 8 -13 12 0 27 8 10 9 15 2 11 -8 -5 -11 0 -10 13 1 11 6 20 12 20 5 0 4
4 -4 9 -13 8 -13 12 0 27 8 10 9 15 2 11 -8 -5 -11 2 -11 23 1 24 5 30 17 25
14 -4 14 -4 1 7 -19 16 -25 62 -7 51 9 -5 9 -3 1 8 -13 17 -16 169 -3 169 5 0
9 5 9 11 0 5 -4 8 -10 4 -5 -3 -8 7 -7 25 1 16 7 30 12 30 6 0 4 4 -4 9 -13 8
-13 12 0 27 8 10 9 15 2 11 -8 -5 -11 0 -10 13 1 11 6 20 12 20 5 0 4 4 -4 9
-13 8 -13 12 0 27 8 10 9 15 2 11 -8 -5 -11 2 -11 23 1 24 5 30 17 25 14 -4
14 -4 1 7 -19 16 -25 62 -7 51 9 -5 9 -3 1 8 -13 17 -16 169 -3 169 5 0 9 5 9
11 0 5 -4 8 -10 4 -5 -3 -8 7 -7 25 1 16 7 30 12 30 6 0 4 4 -4 9 -13 8 -13
12 0 27 8 10 9 15 2 11 -8 -5 -11 0 -10 13 1 11 6 20 12 20 5 0 4 4 -4 9 -13
8 -13 12 0 27 8 10 9 15 2 11 -8 -5 -11 2 -11 23 1 24 5 30 17 25 14 -4 14 -4
1 7 -19 16 -25 62 -7 51 9 -5 9 -3 1 8 -13 17 -16 169 -3 169 5 0 9 5 9 11 0
5 -4 8 -10 4 -5 -3 -8 7 -7 25 1 16 7 30 12 30 6 0 4 4 -4 9 -13 8 -13 12 0
27 8 10 9 15 2 11 -8 -5 -11 0 -10 13 1 11 6 20 12 20 5 0 4 4 -4 9 -13 8 -13
12 0 27 8 10 9 15 2 11 -8 -5 -11 2 -11 23 1 24 5 30 17 25 14 -4 14 -4 1 7
-19 16 -25 62 -7 51 9 -5 9 -3 1 8 -13 17 -16 169 -3 169 5 0 9 5 9 11 0 5 -4
8 -9 5 -5 -3 -9 10 -8 28 1 22 5 32 11 28 7 -4 7 -1 0 9 -6 8 -10 50 -10 94 1
44 -2 85 -7 92 -5 7 -5 18 -1 24 4 8 3 9 -4 5 -11 -6 -15 5 -11 30 0 4 -5 11
-13 15 -11 7 -10 11 2 19 13 9 13 10 0 10 -9 0 -28 28 -45 64 -27 56 -29 65
-15 74 12 8 11 9 -6 5 -22 -5 -40 19 -28 38 3 5 -2 9 -10 9 -8 0 -17 9 -21 19
-3 11 -19 37 -36 58 -17 21 -42 54 -57 73 -15 19 -35 41 -44 49 -9 8 -14 19
-11 24 3 6 2 7 -4 4 -5 -3 -22 7 -37 24 -15 16 -32 29 -38 29 -6 0 -8 7 -5 14
4 9 1 13 -6 10 -16 -6 -79 40 -69 51 4 5 2 6 -4 2 -5 -3 -41 10 -80 29 -38 19
-75 34 -81 34 -7 0 -13 3 -13 8 0 4 -15 8 -32 9 -18 2 -34 7 -36 12 -2 5 -12
6 -24 3 -12 -3 -19 -1 -15 4 3 6 -9 8 -30 6 -20 -3 -33 0 -30 4 3 5 -12 8 -34
7 -27 -1 -41 3 -49 15 -7 14 -9 14 -10 2 0 -12 -12 -15 -54 -14 -30 1 -59 4
-64 8 -5 3 -12 2 -16 -1 -11 -12 -37 -12 -30 -1 5 7 2 8 -7 2 -27 -16 -69 -14
-69 4 0 9 -11 60 -24 112 -14 52 -22 98 -20 102 3 5 1 8 -5 8 -12 0 -42 100
-34 113 3 6 1 7 -5 3 -11 -7 -16 7 -15 41 1 7 -3 11 -7 8 -10 -6 -32 44 -24
57 4 6 2 8 -4 4 -6 -3 -14 4 -18 16 -3 13 -15 36 -26 51 -17 24 -18 30 -6 45
12 15 11 16 -4 4 -12 -10 -18 -10 -23 -1 -4 6 -1 16 6 21 11 8 10 9 -3 4 -12
-3 -25 7 -45 39 -15 24 -31 44 -35 45 -13 0 -96 88 -90 95 4 4 2 5 -3 4 -11
-4 -71 27 -77 38 -1 5 -28 19 -58 33 -30 13 -62 30 -72 38 -9 7 -22 15 -30 16
-34 7 -75 20 -93 29 -11 6 -29 12 -40 13 -11 1 -38 7 -60 14 -22 6 -49 13 -60
15 -11 2 -20 4 -20 5 0 1 -9 3 -19 5 -88 17 -165 38 -161 44 2 5 -7 6 -20 3
-14 -2 -25 0 -26 4 0 5 -2 18 -4 29 -2 11 -7 43 -10 70 -6 53 -22 147 -30 180
-21 90 -37 140 -64 205 -17 41 -31 79 -31 83 0 5 -7 15 -16 24 -8 9 -13 22
-10 30 3 8 1 11 -4 8 -9 -6 -12 0 -14 35 -1 8 -6 15 -13 15 -20 0 -28 16 -13
26 12 9 12 10 -2 5 -12 -4 -24 3 -35 22 -10 15 -27 35 -38 45 -14 13 -16 20
-7 23 6 3 9 10 6 16 -4 6 -9 6 -14 -2 -6 -9 -23 2 -59 38 -28 28 -51 49 -51
46 0 -5 -50 26 -67 43 -7 6 -10 20 -7 30 5 17 5 17 -6 1 -10 -17 -14 -16 -63
9 -29 15 -54 29 -57 32 -3 4 -14 8 -25 9 -11 2 -22 8 -23 13 -2 5 -7 7 -12 4
-4 -3 -27 2 -51 11 -40 14 -89 24 -131 29 -9 0 -23 7 -31 13 -11 10 -17 9 -27
-3 -13 -16 -45 -21 -35 -6 3 5 1 13 -5 16 -6 4 -9 1 -8 -7 2 -7 -7 -14 -19
-16 -18 -3 -22 0 -17 15 5 14 4 15 -4 4 -14 -20 -42 -22 -49 -4 -5 11 -7 12
-14 2 -5 -8 -31 -14 -67 -15 -51 -1 -59 2 -55 15 4 14 3 14 -6 1 -15 -21 -74
-22 -66 -1 4 14 4 14 -7 1 -15 -19 -79 -20 -101 -2 -11 10 -17 9 -27 -3 -13
-16 -45 -21 -35 -6 3 5 1 13 -5 16 -6 4 -9 1 -8 -7 2 -7 -7 -14 -19 -16 -18
-3 -22 0 -17 15 5 14 4 15 -4 4 -14 -20 -42 -22 -49 -4 -5 11 -7 12 -14 2 -5
-8 -31 -14 -67 -15 -51 -1 -59 2 -55 15 4 14 3 14 -6 1 -15 -21 -74 -22 -66
-1 4 14 4 14 -7 1 -15 -19 -79 -20 -101 -2 -11 10 -17 9 -27 -3 -13 -16 -45
-21 -35 -6 3 5 1 13 -5 16 -6 4 -9 1 -8 -7 2 -7 -7 -14 -19 -16 -18 -3 -22 0
-17 15 5 14 4 15 -4 4 -14 -20 -42 -22 -49 -4 -5 11 -7 12 -14 2 -5 -8 -31
-14 -67 -15 -51 -1 -59 2 -55 15 4 14 3 14 -6 1 -15 -21 -74 -22 -66 -1 4 14
4 14 -7 1 -15 -19 -79 -20 -101 -2 -11 10 -17 9 -27 -3 -13 -16 -45 -21 -35
-6 3 5 1 13 -5 16 -6 4 -9 1 -8 -7 2 -7 -7 -14 -19 -16 -18 -3 -22 0 -17 15 5
14 4 15 -4 4 -14 -20 -42 -22 -49 -4 -5 11 -7 12 -14 2 -5 -8 -31 -14 -67 -15
-51 -1 -59 2 -55 15 4 14 3 14 -6 1 -15 -21 -74 -22 -66 -1 4 14 4 14 -7 1
-15 -19 -79 -20 -101 -2 -11 10 -17 9 -27 -3 -13 -16 -45 -21 -35 -6 3 5 1 13
-5 16 -6 4 -9 1 -8 -7 2 -7 -7 -14 -19 -16 -18 -3 -22 0 -17 15 5 14 4 15 -4
4 -14 -20 -42 -22 -49 -4 -5 11 -7 12 -14 2 -5 -8 -31 -14 -67 -15 -51 -1 -59
2 -55 15 4 14 3 14 -6 1 -15 -21 -74 -22 -66 -1 4 14 4 14 -7 1 -15 -19 -79
-20 -101 -2 -11 10 -17 9 -27 -3 -13 -16 -45 -21 -35 -6 3 5 1 13 -5 16 -6 4
-9 1 -8 -7 2 -7 -7 -14 -19 -16 -18 -3 -22 0 -17 15 5 14 4 15 -4 4 -14 -20
-42 -22 -49 -4 -5 11 -7 12 -14 2 -5 -8 -31 -14 -67 -15 -51 -1 -59 2 -55 15
4 14 3 14 -6 1 -15 -21 -74 -22 -66 -1 4 14 4 14 -7 1 -15 -19 -79 -20 -101
-2 -11 10 -17 9 -27 -3 -13 -16 -45 -21 -35 -6 3 5 1 13 -5 16 -6 4 -9 1 -8
-7 2 -7 -7 -14 -19 -16 -18 -3 -22 0 -17 15 5 14 4 15 -4 4 -14 -20 -42 -22
-49 -4 -5 11 -7 12 -14 2 -5 -8 -31 -14 -67 -15 -51 -1 -59 2 -55 15 4 14 3
14 -6 1 -15 -21 -74 -22 -66 -1 4 14 4 14 -7 1 -15 -19 -79 -20 -101 -2 -11
10 -17 9 -27 -3 -13 -16 -45 -21 -35 -6 3 5 1 13 -5 16 -6 4 -9 1 -8 -7 2 -7
-7 -14 -19 -16 -18 -3 -22 0 -17 15 5 14 4 15 -4 4 -14 -20 -42 -22 -49 -4 -5
11 -7 12 -14 2 -5 -8 -31 -14 -67 -15 -51 -1 -59 2 -55 15 4 14 3 14 -6 1 -15
-21 -74 -22 -66 -1 4 14 4 14 -7 1 -15 -19 -79 -20 -101 -2 -11 10 -17 9 -27
-3 -13 -16 -45 -21 -35 -6 3 5 1 13 -5 16 -6 4 -9 1 -8 -7 2 -7 -7 -14 -19
-16 -18 -3 -22 0 -17 15 5 14 4 15 -4 4 -14 -20 -42 -22 -49 -4 -5 11 -7 12
-14 2 -5 -8 -31 -14 -67 -15 -51 -1 -59 2 -55 15 4 14 3 14 -6 1 -15 -21 -74
-22 -66 -1 4 14 4 14 -7 1 -15 -19 -79 -20 -101 -2 -11 10 -17 9 -27 -3 -13
-16 -45 -21 -35 -6 3 5 1 13 -5 16 -6 4 -9 1 -8 -7 2 -7 -7 -14 -19 -16 -18
-3 -22 0 -17 15 5 14 4 15 -4 4 -14 -20 -42 -22 -49 -4 -5 11 -7 12 -14 2 -5
-8 -31 -14 -67 -15 -51 -1 -59 2 -55 15 4 14 3 14 -6 1 -15 -21 -74 -22 -66
-1 4 14 4 14 -7 1 -15 -19 -79 -20 -101 -2 -11 10 -17 9 -27 -3 -13 -16 -45
-21 -35 -6 3 5 1 13 -5 16 -6 4 -9 1 -8 -7 2 -7 -7 -14 -19 -16 -18 -3 -22 0
-17 15 5 14 4 15 -4 4 -14 -20 -42 -22 -49 -4 -5 11 -7 12 -14 2 -5 -8 -31
-14 -67 -15 -51 -1 -59 2 -55 15 4 14 3 14 -6 1 -15 -21 -74 -22 -66 -1 4 14
4 14 -7 1 -15 -19 -79 -20 -101 -2 -11 10 -17 9 -27 -3 -13 -16 -45 -21 -35
-6 3 5 1 13 -5 16 -6 4 -9 1 -8 -7 2 -7 -7 -14 -19 -16 -18 -3 -22 0 -17 15 5
14 4 15 -4 4 -14 -20 -42 -22 -49 -4 -5 11 -7 12 -14 2 -5 -8 -31 -14 -67 -15
-51 -1 -59 2 -55 15 4 14 3 14 -6 1 -15 -21 -74 -22 -66 -1 4 14 4 14 -7 1
-15 -19 -79 -20 -101 -2 -11 10 -17 9 -27 -3 -13 -16 -45 -21 -35 -6 3 5 1 13
-5 16 -6 4 -9 1 -8 -7 2 -7 -7 -14 -19 -16 -18 -3 -22 0 -17 15 5 14 4 15 -4
4 -14 -20 -42 -22 -49 -4 -5 11 -7 12 -14 2 -5 -8 -31 -14 -67 -15 -51 -1 -59
2 -55 15 4 14 3 14 -6 1 -15 -21 -74 -22 -66 -1 4 14 4 14 -7 1 -15 -19 -79
-20 -101 -2 -11 10 -17 9 -27 -3 -13 -16 -45 -21 -35 -6 3 5 1 13 -5 16 -6 4
-9 1 -8 -7 2 -7 -7 -14 -19 -16 -18 -3 -22 0 -17 15 5 14 4 15 -4 4 -14 -20
-42 -22 -49 -4 -5 11 -7 12 -14 2 -5 -8 -31 -14 -67 -15 -51 -1 -59 2 -55 15
4 14 3 14 -6 1 -15 -21 -74 -22 -66 -1 4 14 4 14 -7 1 -15 -19 -79 -20 -101
-2 -11 10 -17 9 -27 -3 -13 -16 -45 -21 -35 -6 3 5 1 13 -5 16 -6 4 -9 1 -8
-7 2 -7 -7 -14 -19 -16 -18 -3 -22 0 -17 15 5 14 4 15 -4 4 -14 -20 -42 -22
-49 -4 -5 11 -7 12 -14 2 -5 -8 -31 -14 -67 -15 -51 -1 -59 2 -55 15 4 14 3
14 -6 1 -15 -21 -74 -22 -66 -1 4 14 4 14 -7 1 -15 -19 -79 -20 -101 -2 -11
10 -17 9 -27 -3 -13 -16 -45 -21 -35 -6 3 5 1 13 -5 16 -6 4 -9 1 -8 -7 2 -7
-7 -14 -19 -16 -18 -3 -22 0 -17 15 5 14 4 15 -4 4 -14 -20 -42 -22 -49 -4 -5
11 -7 12 -14 2 -11 -19 -129 -21 -122 -2 3 7 3 13 0 13 -3 0 -7 -6 -10 -14z
m308 -6 c3 -5 -1 -10 -10 -10 -9 0 -13 5 -10 10 3 6 8 10 10 10 2 0 7 -4 10
-10z m480 0 c3 -5 -1 -10 -10 -10 -9 0 -13 5 -10 10 3 6 8 10 10 10 2 0 7 -4
10 -10z m480 0 c3 -5 -1 -10 -10 -10 -9 0 -13 5 -10 10 3 6 8 10 10 10 2 0 7
-4 10 -10z m480 0 c3 -5 -1 -10 -10 -10 -9 0 -13 5 -10 10 3 6 8 10 10 10 2 0
7 -4 10 -10z m480 0 c3 -5 -1 -10 -10 -10 -9 0 -13 5 -10 10 3 6 8 10 10 10 2
0 7 -4 10 -10z m480 0 c3 -5 -1 -10 -10 -10 -9 0 -13 5 -10 10 3 6 8 10 10 10
2 0 7 -4 10 -10z m480 0 c3 -5 -1 -10 -10 -10 -9 0 -13 5 -10 10 3 6 8 10 10
10 2 0 7 -4 10 -10z m480 0 c3 -5 -1 -10 -10 -10 -9 0 -13 5 -10 10 3 6 8 10
10 10 2 0 7 -4 10 -10z m480 0 c3 -5 -1 -10 -10 -10 -9 0 -13 5 -10 10 3 6 8
10 10 10 2 0 7 -4 10 -10z m480 0 c3 -5 -1 -10 -10 -10 -9 0 -13 5 -10 10 3 6
8 10 10 10 2 0 7 -4 10 -10z m480 0 c3 -5 -1 -10 -10 -10 -9 0 -13 5 -10 10 3
6 8 10 10 10 2 0 7 -4 10 -10z m480 0 c3 -5 -1 -10 -10 -10 -9 0 -13 5 -10 10
3 6 8 10 10 10 2 0 7 -4 10 -10z m480 0 c3 -5 -1 -10 -10 -10 -9 0 -13 5 -10
10 3 6 8 10 10 10 2 0 7 -4 10 -10z m480 0 c3 -5 -1 -10 -10 -10 -9 0 -13 5
-10 10 3 6 8 10 10 10 2 0 7 -4 10 -10z m480 0 c3 -5 -1 -10 -10 -10 -9 0 -13
5 -10 10 3 6 8 10 10 10 2 0 7 -4 10 -10z m480 0 c3 -5 -1 -10 -10 -10 -9 0
-13 5 -10 10 3 6 8 10 10 10 2 0 7 -4 10 -10z m-23 -635 c95 -8 179 -61 221
-140 l22 -40 3 -4215 c2 -3165 0 -4225 -9 -4255 -17 -61 -47 -95 -108 -124
l-56 -26 -3517 -3 -3518 -2 0 4410 0 4410 3458 -5 c1901 -3 3478 -7 3504 -10z
m1119 -1129 c153 -33 248 -118 297 -267 17 -52 17 -221 10 -3739 -5 -2375 -11
-3726 -17 -3801 -9 -92 -19 -140 -52 -235 -122 -356 -299 -544 -646 -690 -88
-37 -126 -47 -201 -55 -52 -5 -1010 -13 -2130 -18 -1120 -6 -2548 -13 -3172
-16 l-1135 -6 -339 270 -339 271 2604 1 c1432 1 2960 4 3394 8 l790 7 100 38
c348 133 482 276 583 621 l26 90 7 1770 c3 974 7 2669 8 3768 l1 1997 73 0
c39 0 102 -7 138 -14z m1203 -1016 c91 -29 171 -105 206 -195 l22 -60 -6
-3615 c-7 -3935 -6 -3856 -62 -4110 -94 -422 -349 -694 -836 -894 -170 -69
-15 -66 -2994 -66 -1469 0 -2827 3 -3018 7 l-347 6 -330 263 -330 262 153 6
c84 3 466 8 848 10 382 3 1678 14 2880 26 2311 21 2468 25 2649 71 323 81 627
396 757 784 64 191 62 105 79 3580 8 1716 15 3308 15 3539 l0 419 123 -6 c86
-3 142 -11 191 -27z"/>
<path d="M855 12191 c-3 -5 -2 -12 3 -15 5 -3 9 1 9 9 0 17 -3 19 -12 6z"/>
<path d="M9270 11816 c0 -2 8 -10 18 -17 15 -13 16 -12 3 4 -13 16 -21 21 -21
13z"/>
<path d="M9956 11158 c3 -5 10 -6 15 -3 13 9 11 12 -6 12 -8 0 -12 -4 -9 -9z"/>
<path d="M855 11071 c-3 -5 -2 -12 3 -15 5 -3 9 1 9 9 0 17 -3 19 -12 6z"/>
<path d="M10130 11046 c0 -2 7 -7 16 -10 8 -3 12 -2 9 4 -6 10 -25 14 -25 6z"/>
<path d="M855 10271 c-3 -5 -2 -12 3 -15 5 -3 9 1 9 9 0 17 -3 19 -12 6z"/>
<path d="M855 9951 c-3 -5 -2 -12 3 -15 5 -3 9 1 9 9 0 17 -3 19 -12 6z"/>
<path d="M855 9471 c-3 -5 -2 -12 3 -15 5 -3 9 1 9 9 0 17 -3 19 -12 6z"/>
<path d="M855 8831 c-3 -5 -2 -12 3 -15 5 -3 9 1 9 9 0 17 -3 19 -12 6z"/>
<path d="M855 8351 c-3 -5 -2 -12 3 -15 5 -3 9 1 9 9 0 17 -3 19 -12 6z"/>
<path d="M855 7231 c-3 -5 -2 -12 3 -15 5 -3 9 1 9 9 0 17 -3 19 -12 6z"/>
<path d="M855 6431 c-3 -5 -2 -12 3 -15 5 -3 9 1 9 9 0 17 -3 19 -12 6z"/>
<path d="M855 6111 c-3 -5 -2 -12 3 -15 5 -3 9 1 9 9 0 17 -3 19 -12 6z"/>
<path d="M855 5631 c-3 -5 -2 -12 3 -15 5 -3 9 1 9 9 0 17 -3 19 -12 6z"/>
<path d="M855 4991 c-3 -5 -2 -12 3 -15 5 -3 9 1 9 9 0 17 -3 19 -12 6z"/>
<path d="M855 4511 c-3 -5 -2 -12 3 -15 5 -3 9 1 9 9 0 17 -3 19 -12 6z"/>
<path d="M855 3391 c-3 -5 -2 -12 3 -15 5 -3 9 1 9 9 0 17 -3 19 -12 6z"/>
<path d="M855 2591 c-3 -5 -2 -12 3 -15 5 -3 9 1 9 9 0 17 -3 19 -12 6z"/>
<path d="M1653 1675 c0 -8 4 -12 9 -9 5 3 6 10 3 15 -9 13 -12 11 -12 -6z"/>
<path d="M1696 1642 c-2 -4 4 -8 14 -8 10 0 16 4 14 8 -3 4 -9 8 -14 8 -5 0
-11 -4 -14 -8z"/>
<path d="M11456 1293 c-6 -14 -5 -15 5 -6 7 7 10 15 7 18 -3 3 -9 -2 -12 -12z"/>
<path d="M11335 1080 c-3 -5 -1 -10 4 -10 6 0 11 5 11 10 0 6 -2 10 -4 10 -3
0 -8 -4 -11 -10z"/>
<path d="M2516 898 c3 -5 10 -6 15 -3 13 9 11 12 -6 12 -8 0 -12 -4 -9 -9z"/>
<path d="M2715 731 c-3 -5 -2 -12 3 -15 5 -3 9 1 9 9 0 17 -3 19 -12 6z"/>
<path d="M3090 399 c0 -5 5 -7 10 -4 6 3 10 8 10 11 0 2 -4 4 -10 4 -5 0 -10
-5 -10 -11z"/>
<path d="M4410 80 c0 -5 5 -10 11 -10 5 0 7 5 4 10 -3 6 -8 10 -11 10 -2 0 -4
-4 -4 -10z"/>
<path d="M4835 80 c3 -5 8 -10 11 -10 2 0 4 5 4 10 0 6 -5 10 -11 10 -5 0 -7
-4 -4 -10z"/>
<path d="M6330 80 c0 -5 5 -10 11 -10 5 0 7 5 4 10 -3 6 -8 10 -11 10 -2 0 -4
-4 -4 -10z"/>
<path d="M6755 80 c3 -5 8 -10 11 -10 2 0 4 5 4 10 0 6 -5 10 -11 10 -5 0 -7
-4 -4 -10z"/>
<path d="M7715 80 c3 -5 8 -10 11 -10 2 0 4 5 4 10 0 6 -5 10 -11 10 -5 0 -7
-4 -4 -10z"/>
<path d="M8355 80 c3 -5 8 -10 11 -10 2 0 4 5 4 10 0 6 -5 10 -11 10 -5 0 -7
-4 -4 -10z"/>
<path d="M8995 80 c3 -5 8 -10 11 -10 2 0 4 5 4 10 0 6 -5 10 -11 10 -5 0 -7
-4 -4 -10z"/>
</g>
</svg>
